<?xml version="1.0" encoding="UTF-8" standalone="no"?>
<!DOCTYPE svg PUBLIC "-//W3C//DTD SVG 1.1//EN"
 "http://www.w3.org/Graphics/SVG/1.1/DTD/svg11.dtd">
<!-- Generated by graphviz version 2.43.0 (0)
 -->
<!-- Title: G Pages: 1 -->
<svg width="540pt" height="463pt"
 viewBox="0.00 0.00 540.00 462.98" xmlns="http://www.w3.org/2000/svg" xmlns:xlink="http://www.w3.org/1999/xlink">
<g id="graph0" class="graph" transform="scale(1 1) rotate(0) translate(4 458.98)">
<title>G</title><style>.edge>path:hover{stroke-width:8}</style>
<polygon fill="white" stroke="transparent" points="-4,4 -4,-458.98 536,-458.98 536,4 -4,4"/>
<!-- mewbot_api_v1 -->
<g id="node1" class="node">
<title>mewbot_api_v1</title><style>.edge>path:hover{stroke-width:8}</style>
<ellipse fill="#0bdfdf" stroke="black" cx="147" cy="-220.98" rx="29.37" ry="18"/>
<text text-anchor="middle" x="147" y="-218.48" font-family="Helvetica,sans-Serif" font-size="10.00" fill="#000000">.api.v1</text>
</g>
<!-- mewbot_component -->
<g id="node3" class="node">
<title>mewbot_component</title><style>.edge>path:hover{stroke-width:8}</style>
<ellipse fill="#31c4c4" stroke="black" cx="217" cy="-364.98" rx="43.62" ry="18"/>
<text text-anchor="middle" x="217" y="-362.48" font-family="Helvetica,sans-Serif" font-size="10.00" fill="#000000">.component</text>
</g>
<!-- mewbot_api_v1&#45;&gt;mewbot_component -->
<g id="edge9" class="edge">
<title>mewbot_api_v1&#45;&gt;mewbot_component</title><style>.edge>path:hover{stroke-width:8}</style>
<path fill="none" stroke="black" d="M175.81,-224.81C212.75,-230.28 273.87,-246.18 289,-291.98"/>
<path fill="none" stroke="black" d="M289,-293.98C296.32,-316.15 276.29,-334.27 255.52,-346.52"/>
<polygon fill="#0bdfdf" stroke="black" points="253.72,-343.52 246.65,-351.41 257.1,-349.65 253.72,-343.52"/>
</g>
<!-- mewbot_core -->
<g id="node4" class="node">
<title>mewbot_core</title><style>.edge>path:hover{stroke-width:8}</style>
<ellipse fill="#22e7e7" stroke="black" cx="194" cy="-436.98" rx="27" ry="18"/>
<text text-anchor="middle" x="194" y="-434.48" font-family="Helvetica,sans-Serif" font-size="10.00" fill="#000000">.core</text>
</g>
<!-- mewbot_api_v1&#45;&gt;mewbot_core -->
<g id="edge11" class="edge">
<title>mewbot_api_v1&#45;&gt;mewbot_core</title><style>.edge>path:hover{stroke-width:8}</style>
<path fill="none" stroke="black" d="M289,-293.98C301.68,-332.39 292.37,-349.29 270,-382.98 258.99,-399.56 240.87,-412.5 225.09,-421.43"/>
<polygon fill="#0bdfdf" stroke="black" points="223.3,-418.42 216.14,-426.23 226.6,-424.59 223.3,-418.42"/>
</g>
<!-- mewbot_bot -->
<g id="node2" class="node">
<title>mewbot_bot</title><style>.edge>path:hover{stroke-width:8}</style>
<ellipse fill="#3ab0b0" stroke="black" cx="90" cy="-364.98" rx="27" ry="18"/>
<text text-anchor="middle" x="90" y="-362.48" font-family="Helvetica,sans-Serif" font-size="10.00" fill="#000000">.bot</text>
</g>
<!-- mewbot_bot&#45;&gt;mewbot_core -->
<g id="edge12" class="edge">
<title>mewbot_bot&#45;&gt;mewbot_core</title><style>.edge>path:hover{stroke-width:8}</style>
<path fill="none" stroke="black" d="M108.59,-378.5C124.86,-389.45 148.69,-405.49 167.05,-417.84"/>
<polygon fill="#3ab0b0" stroke="black" points="165.32,-420.9 175.57,-423.58 169.23,-415.09 165.32,-420.9"/>
</g>
<!-- mewbot_data -->
<g id="node5" class="node">
<title>mewbot_data</title><style>.edge>path:hover{stroke-width:8}</style>
<ellipse fill="#47c2c2" stroke="black" cx="99" cy="-436.98" rx="27" ry="18"/>
<text text-anchor="middle" x="99" y="-434.48" font-family="Helvetica,sans-Serif" font-size="10.00" fill="#000000">.data</text>
</g>
<!-- mewbot_bot&#45;&gt;mewbot_data -->
<g id="edge15" class="edge">
<title>mewbot_bot&#45;&gt;mewbot_data</title><style>.edge>path:hover{stroke-width:8}</style>
<path fill="none" stroke="black" d="M92.18,-382.93C93.17,-390.64 94.37,-399.96 95.48,-408.62"/>
<polygon fill="#3ab0b0" stroke="black" points="92.03,-409.24 96.78,-418.71 98.98,-408.34 92.03,-409.24"/>
</g>
<!-- mewbot_component&#45;&gt;mewbot_core -->
<g id="edge13" class="edge">
<title>mewbot_component&#45;&gt;mewbot_core</title><style>.edge>path:hover{stroke-width:8}</style>
<path fill="none" stroke="black" d="M211.43,-382.93C208.8,-390.92 205.61,-400.65 202.67,-409.58"/>
<polygon fill="#31c4c4" stroke="black" points="199.31,-408.6 199.52,-419.19 205.96,-410.79 199.31,-408.6"/>
</g>
<!-- mewbot_demo -->
<g id="node6" class="node">
<title>mewbot_demo</title><style>.edge>path:hover{stroke-width:8}</style>
<ellipse fill="#49acac" stroke="black" cx="267" cy="-100.99" rx="27.84" ry="18"/>
<text text-anchor="middle" x="267" y="-98.49" font-family="Helvetica,sans-Serif" font-size="10.00" fill="#000000">.demo</text>
</g>
<!-- mewbot_demo&#45;&gt;mewbot_api_v1 -->
<g id="edge3" class="edge">
<title>mewbot_demo&#45;&gt;mewbot_api_v1</title><style>.edge>path:hover{stroke-width:8}</style>
<path fill="none" stroke="black" d="M249.73,-115.13C225.78,-133.38 185.25,-164.36 184,-165.98"/>
</g>
<!-- mewbot_io_desktop_notification -->
<g id="node7" class="node">
<title>mewbot_io_desktop_notification</title><style>.edge>path:hover{stroke-width:8}</style>
<ellipse fill="#49acac" stroke="black" cx="395" cy="-100.99" rx="82.05" ry="28.98"/>
<text text-anchor="middle" x="395" y="-109.49" font-family="Helvetica,sans-Serif" font-size="10.00" fill="#000000">.</text>
<text text-anchor="middle" x="395" y="-98.49" font-family="Helvetica,sans-Serif" font-size="10.00" fill="#000000">io.</text>
<text text-anchor="middle" x="395" y="-87.49" font-family="Helvetica,sans-Serif" font-size="10.00" fill="#000000">desktop_notification</text>
</g>
<!-- mewbot_io_desktop_notification&#45;&gt;mewbot_api_v1 -->
<g id="edge4" class="edge">
<title>mewbot_io_desktop_notification&#45;&gt;mewbot_api_v1</title><style>.edge>path:hover{stroke-width:8}</style>
<path fill="none" stroke="black" d="M334.32,-120.72C324.2,-123.83 313.81,-127 304,-129.98 250.72,-146.17 218.02,-121.91 184,-165.98"/>
</g>
<!-- mewbot_io_discord -->
<g id="node8" class="node">
<title>mewbot_io_discord</title><style>.edge>path:hover{stroke-width:8}</style>
<ellipse fill="#46a4a4" stroke="black" cx="52" cy="-100.99" rx="39.38" ry="18"/>
<text text-anchor="middle" x="52" y="-98.49" font-family="Helvetica,sans-Serif" font-size="10.00" fill="#000000">.io.discord</text>
</g>
<!-- mewbot_io_discord&#45;&gt;mewbot_api_v1 -->
<g id="edge5" class="edge">
<title>mewbot_io_discord&#45;&gt;mewbot_api_v1</title><style>.edge>path:hover{stroke-width:8}</style>
<path fill="none" stroke="black" d="M71,-166.98C79.46,-184.7 97.13,-197.57 113.3,-206.19"/>
<polygon fill="#46a4a4" stroke="black" points="112.05,-209.47 122.57,-210.77 115.16,-203.2 112.05,-209.47"/>
</g>
<!-- discord -->
<g id="node13" class="node">
<title>discord</title><style>.edge>path:hover{stroke-width:8}</style>
<polygon fill="#80c040" stroke="black" points="98,-310.98 95,-314.98 74,-314.98 71,-310.98 44,-310.98 44,-274.98 98,-274.98 98,-310.98"/>
<text text-anchor="middle" x="71" y="-290.48" font-family="Helvetica,sans-Serif" font-size="10.00" fill="#000000">discord</text>
</g>
<!-- mewbot_io_discord&#45;&gt;discord -->
<g id="edge2" class="edge">
<title>mewbot_io_discord&#45;&gt;discord</title><style>.edge>path:hover{stroke-width:8}</style>
<path fill="none" stroke="black" d="M55.53,-119.1C58.62,-132.3 63.76,-150.82 71,-165.98"/>
<path fill="none" stroke="black" d="M71,-166.98C85.8,-197.96 82.31,-238.39 77.48,-264.76"/>
<polygon fill="#46a4a4" stroke="black" points="74,-264.3 75.45,-274.79 80.86,-265.68 74,-264.3"/>
</g>
<!-- mewbot_io_http -->
<g id="node9" class="node">
<title>mewbot_io_http</title><style>.edge>path:hover{stroke-width:8}</style>
<ellipse fill="#409696" stroke="black" cx="184" cy="-18" rx="30.04" ry="18"/>
<text text-anchor="middle" x="184" y="-15.5" font-family="Helvetica,sans-Serif" font-size="10.00" fill="#ffffff">.io.http</text>
</g>
<!-- mewbot_io_http&#45;&gt;mewbot_api_v1 -->
<g id="edge6" class="edge">
<title>mewbot_io_http&#45;&gt;mewbot_api_v1</title><style>.edge>path:hover{stroke-width:8}</style>
<path fill="none" stroke="black" d="M166.51,-33.22C156.05,-42.9 143.71,-56.71 138,-72 128.98,-96.14 126.71,-106.82 138,-129.98 149.37,-153.32 199.86,-145.43 184,-165.98"/>
<path fill="none" stroke="black" d="M184,-166.98C176.78,-176.02 169.38,-186.37 163.11,-195.51"/>
<polygon fill="#409696" stroke="black" points="160.19,-193.58 157.49,-203.82 165.99,-197.5 160.19,-193.58"/>
</g>
<!-- mewbot_io_socket -->
<g id="node10" class="node">
<title>mewbot_io_socket</title><style>.edge>path:hover{stroke-width:8}</style>
<ellipse fill="#3db8b8" stroke="black" cx="184" cy="-100.99" rx="37.17" ry="18"/>
<text text-anchor="middle" x="184" y="-98.49" font-family="Helvetica,sans-Serif" font-size="10.00" fill="#000000">.io.socket</text>
</g>
<!-- mewbot_io_http&#45;&gt;mewbot_io_socket -->
<g id="edge16" class="edge">
<title>mewbot_io_http&#45;&gt;mewbot_io_socket</title><style>.edge>path:hover{stroke-width:8}</style>
<path fill="none" stroke="black" d="M184,-36.18C184,-46.81 184,-60.69 184,-72.79"/>
<polygon fill="#409696" stroke="black" points="180.5,-72.84 184,-82.84 187.5,-72.84 180.5,-72.84"/>
</g>
<!-- aiohttp -->
<g id="node12" class="node">
<title>aiohttp</title><style>.edge>path:hover{stroke-width:8}</style>
<polygon fill="#c04040" stroke="black" points="532,-238.98 529,-242.98 508,-242.98 505,-238.98 478,-238.98 478,-202.98 532,-202.98 532,-238.98"/>
<text text-anchor="middle" x="505" y="-218.48" font-family="Helvetica,sans-Serif" font-size="10.00" fill="#ffffff">aiohttp</text>
</g>
<!-- mewbot_io_http&#45;&gt;aiohttp -->
<g id="edge1" class="edge">
<title>mewbot_io_http&#45;&gt;aiohttp</title><style>.edge>path:hover{stroke-width:8}</style>
<path fill="none" stroke="black" d="M213.94,-19.9C282.72,-22.62 448.91,-33.17 486,-72 516.67,-104.12 514.78,-159.59 510.19,-192.73"/>
<polygon fill="#409696" stroke="black" points="506.72,-192.22 508.64,-202.64 513.64,-193.3 506.72,-192.22"/>
</g>
<!-- mewbot_io_socket&#45;&gt;mewbot_api_v1 -->
<g id="edge7" class="edge">
<title>mewbot_io_socket&#45;&gt;mewbot_api_v1</title><style>.edge>path:hover{stroke-width:8}</style>
<path fill="none" stroke="black" d="M189.24,-119.03C192.43,-133.09 194.18,-152.79 184,-165.98"/>
</g>
<!-- mewbot_loader -->
<g id="node11" class="node">
<title>mewbot_loader</title><style>.edge>path:hover{stroke-width:8}</style>
<ellipse fill="#409696" stroke="black" cx="145" cy="-292.98" rx="29.37" ry="18"/>
<text text-anchor="middle" x="145" y="-290.48" font-family="Helvetica,sans-Serif" font-size="10.00" fill="#ffffff">.loader</text>
</g>
<!-- mewbot_loader&#45;&gt;mewbot_bot -->
<g id="edge8" class="edge">
<title>mewbot_loader&#45;&gt;mewbot_bot</title><style>.edge>path:hover{stroke-width:8}</style>
<path fill="none" stroke="black" d="M132.79,-309.52C125.67,-318.58 116.55,-330.2 108.55,-340.37"/>
<polygon fill="#409696" stroke="black" points="105.6,-338.47 102.17,-348.49 111.1,-342.79 105.6,-338.47"/>
</g>
<!-- mewbot_loader&#45;&gt;mewbot_component -->
<g id="edge10" class="edge">
<title>mewbot_loader&#45;&gt;mewbot_component</title><style>.edge>path:hover{stroke-width:8}</style>
<path fill="none" stroke="black" d="M160.27,-308.83C169.93,-318.22 182.61,-330.55 193.53,-341.17"/>
<polygon fill="#409696" stroke="black" points="191.14,-343.72 200.75,-348.19 196.02,-338.71 191.14,-343.72"/>
</g>
<!-- mewbot_loader&#45;&gt;mewbot_core -->
<g id="edge14" class="edge">
<title>mewbot_loader&#45;&gt;mewbot_core</title><style>.edge>path:hover{stroke-width:8}</style>
<path fill="none" stroke="black" d="M147.08,-311.15C149.66,-329.41 154.86,-358.9 164,-382.98 167.73,-392.81 173.09,-403.01 178.25,-411.79"/>
<polygon fill="#409696" stroke="black" points="175.29,-413.65 183.48,-420.37 181.26,-410.01 175.29,-413.65"/>
</g>
<!-- yaml -->
<g id="node14" class="node">
<title>yaml</title><style>.edge>path:hover{stroke-width:8}</style>
<polygon fill="#8553b6" stroke="black" points="54,-454.98 51,-458.98 30,-458.98 27,-454.98 0,-454.98 0,-418.98 54,-418.98 54,-454.98"/>
<text text-anchor="middle" x="27" y="-434.48" font-family="Helvetica,sans-Serif" font-size="10.00" fill="#ffffff">yaml</text>
</g>
<!-- mewbot_loader&#45;&gt;yaml -->
<g id="edge17" class="edge">
<title>mewbot_loader&#45;&gt;yaml</title><style>.edge>path:hover{stroke-width:8}</style>
<path fill="none" stroke="black" d="M122.23,-304.83C98.45,-316.55 63.35,-335.15 54,-346.98 39.96,-364.75 33.2,-389.76 29.95,-408.75"/>
<polygon fill="#409696" stroke="black" points="26.46,-408.46 28.46,-418.86 33.38,-409.48 26.46,-408.46"/>
</g>
</g>
</svg>
