<?xml version="1.0" encoding="UTF-8" standalone="no"?>
<!DOCTYPE svg PUBLIC "-//W3C//DTD SVG 1.1//EN"
 "http://www.w3.org/Graphics/SVG/1.1/DTD/svg11.dtd">
<!-- Generated by graphviz version 2.43.0 (0)
 -->
<!-- Title: G Pages: 1 -->
<svg width="392pt" height="441pt"
 viewBox="0.00 0.00 392.27 441.00" xmlns="http://www.w3.org/2000/svg" xmlns:xlink="http://www.w3.org/1999/xlink">
<g id="graph0" class="graph" transform="scale(1 1) rotate(0) translate(4 437)">
<title>G</title><style>.edge>path:hover{stroke-width:8}</style>
<polygon fill="white" stroke="transparent" points="-4,4 -4,-437 388.27,-437 388.27,4 -4,4"/>
<!-- mewbot_api_v1 -->
<g id="node1" class="node">
<title>mewbot_api_v1</title><style>.edge>path:hover{stroke-width:8}</style>
<ellipse fill="#23c8c8" stroke="black" cx="215.43" cy="-199" rx="29.37" ry="18"/>
<text text-anchor="middle" x="215.43" y="-196.5" font-family="Helvetica,sans-Serif" font-size="10.00" fill="#000000">.api.v1</text>
</g>
<!-- mewbot_component -->
<g id="node3" class="node">
<title>mewbot_component</title><style>.edge>path:hover{stroke-width:8}</style>
<ellipse fill="#31c4c4" stroke="black" cx="230.43" cy="-343" rx="43.62" ry="18"/>
<text text-anchor="middle" x="230.43" y="-340.5" font-family="Helvetica,sans-Serif" font-size="10.00" fill="#000000">.component</text>
</g>
<!-- mewbot_api_v1&#45;&gt;mewbot_component -->
<g id="edge7" class="edge">
<title>mewbot_api_v1&#45;&gt;mewbot_component</title><style>.edge>path:hover{stroke-width:8}</style>
<path fill="none" stroke="black" d="M238.58,-210.23C275.07,-226.69 342.13,-258.38 344.43,-270"/>
<path fill="none" stroke="black" d="M344.43,-272C351,-305.07 313.46,-323.14 279.73,-332.59"/>
<polygon fill="#23c8c8" stroke="black" points="278.69,-329.25 269.89,-335.15 280.45,-336.02 278.69,-329.25"/>
</g>
<!-- mewbot_core -->
<g id="node4" class="node">
<title>mewbot_core</title><style>.edge>path:hover{stroke-width:8}</style>
<ellipse fill="#10f9f9" stroke="black" cx="202.43" cy="-415" rx="27" ry="18"/>
<text text-anchor="middle" x="202.43" y="-412.5" font-family="Helvetica,sans-Serif" font-size="10.00" fill="#000000">.core</text>
</g>
<!-- mewbot_api_v1&#45;&gt;mewbot_core -->
<g id="edge9" class="edge">
<title>mewbot_api_v1&#45;&gt;mewbot_core</title><style>.edge>path:hover{stroke-width:8}</style>
<path fill="none" stroke="black" d="M344.43,-272C350.49,-302.52 363.99,-317.8 344.43,-342"/>
<path fill="none" stroke="black" d="M344.43,-344C317.38,-377.47 270.31,-396.18 237.82,-405.67"/>
<polygon fill="#23c8c8" stroke="black" points="236.54,-402.39 227.83,-408.43 238.4,-409.14 236.54,-402.39"/>
</g>
<!-- mewbot_bot -->
<g id="node2" class="node">
<title>mewbot_bot</title><style>.edge>path:hover{stroke-width:8}</style>
<ellipse fill="#3ab0b0" stroke="black" cx="102.43" cy="-343" rx="27" ry="18"/>
<text text-anchor="middle" x="102.43" y="-340.5" font-family="Helvetica,sans-Serif" font-size="10.00" fill="#000000">.bot</text>
</g>
<!-- mewbot_bot&#45;&gt;mewbot_core -->
<g id="edge10" class="edge">
<title>mewbot_bot&#45;&gt;mewbot_core</title><style>.edge>path:hover{stroke-width:8}</style>
<path fill="none" stroke="black" d="M120.31,-356.51C135.72,-367.3 158.17,-383.02 175.71,-395.3"/>
<polygon fill="#3ab0b0" stroke="black" points="174.17,-398.49 184.37,-401.36 178.19,-392.76 174.17,-398.49"/>
</g>
<!-- mewbot_data -->
<g id="node5" class="node">
<title>mewbot_data</title><style>.edge>path:hover{stroke-width:8}</style>
<ellipse fill="#47c2c2" stroke="black" cx="102.43" cy="-415" rx="27" ry="18"/>
<text text-anchor="middle" x="102.43" y="-412.5" font-family="Helvetica,sans-Serif" font-size="10.00" fill="#000000">.data</text>
</g>
<!-- mewbot_bot&#45;&gt;mewbot_data -->
<g id="edge17" class="edge">
<title>mewbot_bot&#45;&gt;mewbot_data</title><style>.edge>path:hover{stroke-width:8}</style>
<path fill="none" stroke="black" d="M102.43,-361.3C102.43,-369.02 102.43,-378.29 102.43,-386.89"/>
<polygon fill="#3ab0b0" stroke="black" points="98.93,-386.9 102.43,-396.9 105.93,-386.9 98.93,-386.9"/>
</g>
<!-- mewbot_component&#45;&gt;mewbot_core -->
<g id="edge11" class="edge">
<title>mewbot_component&#45;&gt;mewbot_core</title><style>.edge>path:hover{stroke-width:8}</style>
<path fill="none" stroke="black" d="M223.66,-360.95C220.42,-369.03 216.48,-378.88 212.88,-387.89"/>
<polygon fill="#31c4c4" stroke="black" points="209.61,-386.63 209.15,-397.21 216.11,-389.23 209.61,-386.63"/>
</g>
<!-- mewbot_demo -->
<g id="node6" class="node">
<title>mewbot_demo</title><style>.edge>path:hover{stroke-width:8}</style>
<ellipse fill="#46a4a4" stroke="black" cx="234.43" cy="-90" rx="27.84" ry="18"/>
<text text-anchor="middle" x="234.43" y="-87.5" font-family="Helvetica,sans-Serif" font-size="10.00" fill="#000000">.demo</text>
</g>
<!-- mewbot_demo&#45;&gt;mewbot_api_v1 -->
<g id="edge3" class="edge">
<title>mewbot_demo&#45;&gt;mewbot_api_v1</title><style>.edge>path:hover{stroke-width:8}</style>
<path fill="none" stroke="black" d="M233.68,-108.22C233.42,-118.6 233.4,-132.08 234.43,-144"/>
<path fill="none" stroke="black" d="M234.43,-145C235.23,-154.24 232.83,-163.91 229.49,-172.42"/>
<polygon fill="#46a4a4" stroke="black" points="226.19,-171.23 225.27,-181.79 232.57,-174.11 226.19,-171.23"/>
</g>
<!-- mewbot_demo&#45;&gt;mewbot_core -->
<g id="edge12" class="edge">
<title>mewbot_demo&#45;&gt;mewbot_core</title><style>.edge>path:hover{stroke-width:8}</style>
<path fill="none" stroke="black" d="M234.43,-145C236.93,-173.88 254.59,-175.16 272.43,-198"/>
<path fill="none" stroke="black" d="M272.43,-200C300.08,-235.38 320.27,-229.35 358.43,-253 369.54,-259.88 381.34,-256.97 382.43,-270"/>
<path fill="none" stroke="black" d="M382.43,-272C385.38,-307.28 366.69,-314.47 344.43,-342"/>
</g>
<!-- mewbot_io_discord -->
<g id="node7" class="node">
<title>mewbot_io_discord</title><style>.edge>path:hover{stroke-width:8}</style>
<ellipse fill="#439d9d" stroke="black" cx="149.43" cy="-90" rx="39.38" ry="18"/>
<text text-anchor="middle" x="149.43" y="-87.5" font-family="Helvetica,sans-Serif" font-size="10.00" fill="#000000">.io.discord</text>
</g>
<!-- mewbot_io_discord&#45;&gt;mewbot_api_v1 -->
<g id="edge4" class="edge">
<title>mewbot_io_discord&#45;&gt;mewbot_api_v1</title><style>.edge>path:hover{stroke-width:8}</style>
<path fill="none" stroke="black" d="M158.43,-145C163.26,-159.44 174.88,-171.43 186.37,-180.34"/>
<polygon fill="#439d9d" stroke="black" points="184.46,-183.27 194.63,-186.27 188.55,-177.59 184.46,-183.27"/>
</g>
<!-- mewbot_io_discord&#45;&gt;mewbot_core -->
<g id="edge13" class="edge">
<title>mewbot_io_discord&#45;&gt;mewbot_core</title><style>.edge>path:hover{stroke-width:8}</style>
<path fill="none" stroke="black" d="M158.43,-200C152.71,-231.03 139.6,-316.68 158.43,-342"/>
</g>
<!-- discord -->
<g id="node12" class="node">
<title>discord</title><style>.edge>path:hover{stroke-width:8}</style>
<polygon fill="#80c040" stroke="black" points="130.43,-289 127.43,-293 106.43,-293 103.43,-289 76.43,-289 76.43,-253 130.43,-253 130.43,-289"/>
<text text-anchor="middle" x="103.43" y="-268.5" font-family="Helvetica,sans-Serif" font-size="10.00" fill="#000000">discord</text>
</g>
<!-- mewbot_io_discord&#45;&gt;discord -->
<g id="edge2" class="edge">
<title>mewbot_io_discord&#45;&gt;discord</title><style>.edge>path:hover{stroke-width:8}</style>
<path fill="none" stroke="black" d="M150.97,-108.03C152.25,-118.59 154.53,-132.32 158.43,-144"/>
<path fill="none" stroke="black" d="M158.43,-145C165.9,-167.34 162.71,-174.84 158.43,-198"/>
<path fill="none" stroke="black" d="M158.43,-200C155.21,-217.5 143.76,-233.41 132.14,-245.63"/>
<polygon fill="#439d9d" stroke="black" points="129.6,-243.22 124.95,-252.74 134.52,-248.19 129.6,-243.22"/>
</g>
<!-- mewbot_io_http -->
<g id="node8" class="node">
<title>mewbot_io_http</title><style>.edge>path:hover{stroke-width:8}</style>
<ellipse fill="#409696" stroke="black" cx="317.43" cy="-18" rx="30.04" ry="18"/>
<text text-anchor="middle" x="317.43" y="-15.5" font-family="Helvetica,sans-Serif" font-size="10.00" fill="#ffffff">.io.http</text>
</g>
<!-- mewbot_io_http&#45;&gt;mewbot_core -->
<g id="edge14" class="edge">
<title>mewbot_io_http&#45;&gt;mewbot_core</title><style>.edge>path:hover{stroke-width:8}</style>
<path fill="none" stroke="black" d="M382.43,-145C373.54,-199.84 377.81,-214.64 382.43,-270"/>
</g>
<!-- mewbot_io_socket -->
<g id="node9" class="node">
<title>mewbot_io_socket</title><style>.edge>path:hover{stroke-width:8}</style>
<ellipse fill="#3ab0b0" stroke="black" cx="317.43" cy="-90" rx="37.17" ry="18"/>
<text text-anchor="middle" x="317.43" y="-87.5" font-family="Helvetica,sans-Serif" font-size="10.00" fill="#000000">.io.socket</text>
</g>
<!-- mewbot_io_http&#45;&gt;mewbot_io_socket -->
<g id="edge18" class="edge">
<title>mewbot_io_http&#45;&gt;mewbot_io_socket</title><style>.edge>path:hover{stroke-width:8}</style>
<path fill="none" stroke="black" d="M317.43,-36.3C317.43,-44.02 317.43,-53.29 317.43,-61.89"/>
<polygon fill="#409696" stroke="black" points="313.93,-61.9 317.43,-71.9 320.93,-61.9 313.93,-61.9"/>
</g>
<!-- aiohttp -->
<g id="node11" class="node">
<title>aiohttp</title><style>.edge>path:hover{stroke-width:8}</style>
<polygon fill="#c04040" stroke="black" points="354.43,-217 351.43,-221 330.43,-221 327.43,-217 300.43,-217 300.43,-181 354.43,-181 354.43,-217"/>
<text text-anchor="middle" x="327.43" y="-196.5" font-family="Helvetica,sans-Serif" font-size="10.00" fill="#ffffff">aiohttp</text>
</g>
<!-- mewbot_io_http&#45;&gt;aiohttp -->
<g id="edge1" class="edge">
<title>mewbot_io_http&#45;&gt;aiohttp</title><style>.edge>path:hover{stroke-width:8}</style>
<path fill="none" stroke="black" d="M333.17,-33.44C355.54,-55.78 392.74,-100.69 382.43,-144"/>
<path fill="none" stroke="black" d="M382.43,-145C380.41,-157.48 372.27,-168.01 362.85,-176.32"/>
<polygon fill="#409696" stroke="black" points="360.39,-173.8 354.74,-182.76 364.74,-179.28 360.39,-173.8"/>
</g>
<!-- mewbot_io_socket&#45;&gt;mewbot_api_v1 -->
<g id="edge5" class="edge">
<title>mewbot_io_socket&#45;&gt;mewbot_api_v1</title><style>.edge>path:hover{stroke-width:8}</style>
<path fill="none" stroke="black" d="M302.19,-106.91C292.93,-117.05 281.25,-130.73 272.43,-144"/>
<path fill="none" stroke="black" d="M272.43,-145C264.16,-157.47 252.37,-169.07 241.66,-178.22"/>
<polygon fill="#3ab0b0" stroke="black" points="239.26,-175.66 233.76,-184.71 243.71,-181.07 239.26,-175.66"/>
</g>
<!-- mewbot_io_socket&#45;&gt;mewbot_core -->
<g id="edge15" class="edge">
<title>mewbot_io_socket&#45;&gt;mewbot_core</title><style>.edge>path:hover{stroke-width:8}</style>
<path fill="none" stroke="black" d="M272.43,-145C259.41,-164.63 257.93,-179.44 272.43,-198"/>
</g>
<!-- mewbot_loader -->
<g id="node10" class="node">
<title>mewbot_loader</title><style>.edge>path:hover{stroke-width:8}</style>
<ellipse fill="#409696" stroke="black" cx="29.43" cy="-271" rx="29.37" ry="18"/>
<text text-anchor="middle" x="29.43" y="-268.5" font-family="Helvetica,sans-Serif" font-size="10.00" fill="#ffffff">.loader</text>
</g>
<!-- mewbot_loader&#45;&gt;mewbot_bot -->
<g id="edge6" class="edge">
<title>mewbot_loader&#45;&gt;mewbot_bot</title><style>.edge>path:hover{stroke-width:8}</style>
<path fill="none" stroke="black" d="M44.56,-286.5C54.81,-296.33 68.52,-309.48 80.03,-320.52"/>
<polygon fill="#409696" stroke="black" points="77.94,-323.36 87.58,-327.75 82.78,-318.31 77.94,-323.36"/>
</g>
<!-- mewbot_loader&#45;&gt;mewbot_component -->
<g id="edge8" class="edge">
<title>mewbot_loader&#45;&gt;mewbot_component</title><style>.edge>path:hover{stroke-width:8}</style>
<path fill="none" stroke="black" d="M52.18,-282.65C57.16,-284.85 62.44,-287.08 67.43,-289 106.94,-304.21 152.89,-318.89 185.91,-328.92"/>
<polygon fill="#409696" stroke="black" points="185.13,-332.34 195.72,-331.88 187.15,-325.64 185.13,-332.34"/>
</g>
<!-- mewbot_loader&#45;&gt;mewbot_core -->
<g id="edge16" class="edge">
<title>mewbot_loader&#45;&gt;mewbot_core</title><style>.edge>path:hover{stroke-width:8}</style>
<path fill="none" stroke="black" d="M52.52,-282.4C79.8,-294.82 123.37,-315.16 138.43,-325 148.2,-331.38 151.47,-332.64 158.43,-342"/>
<path fill="none" stroke="black" d="M158.43,-344C169.15,-358.41 179.9,-375.46 188.1,-389.12"/>
<polygon fill="#409696" stroke="black" points="185.22,-391.14 193.33,-397.96 191.25,-387.58 185.22,-391.14"/>
</g>
<!-- yaml -->
<g id="node13" class="node">
<title>yaml</title><style>.edge>path:hover{stroke-width:8}</style>
<polygon fill="#8553b6" stroke="black" points="56.43,-433 53.43,-437 32.43,-437 29.43,-433 2.43,-433 2.43,-397 56.43,-397 56.43,-433"/>
<text text-anchor="middle" x="29.43" y="-412.5" font-family="Helvetica,sans-Serif" font-size="10.00" fill="#ffffff">yaml</text>
</g>
<!-- mewbot_loader&#45;&gt;yaml -->
<g id="edge19" class="edge">
<title>mewbot_loader&#45;&gt;yaml</title><style>.edge>path:hover{stroke-width:8}</style>
<path fill="none" stroke="black" d="M29.43,-289.13C29.43,-313.33 29.43,-357.79 29.43,-386.61"/>
<polygon fill="#409696" stroke="black" points="25.93,-386.81 29.43,-396.81 32.93,-386.81 25.93,-386.81"/>
</g>
</g>
</svg>
