<?xml version="1.0" encoding="UTF-8" standalone="no"?>
<!DOCTYPE svg PUBLIC "-//W3C//DTD SVG 1.1//EN"
 "http://www.w3.org/Graphics/SVG/1.1/DTD/svg11.dtd">
<!-- Generated by graphviz version 2.43.0 (0)
 -->
<!-- Title: G Pages: 1 -->
<svg width="682pt" height="463pt"
 viewBox="0.00 0.00 682.00 462.98" xmlns="http://www.w3.org/2000/svg" xmlns:xlink="http://www.w3.org/1999/xlink">
<g id="graph0" class="graph" transform="scale(1 1) rotate(0) translate(4 458.98)">
<title>G</title><style>.edge>path:hover{stroke-width:8}</style>
<polygon fill="white" stroke="transparent" points="-4,4 -4,-458.98 678,-458.98 678,4 -4,4"/>
<!-- mewbot_api_registry -->
<g id="node1" class="node">
<title>mewbot_api_registry</title><style>.edge>path:hover{stroke-width:8}</style>
<ellipse fill="#3db8b8" stroke="black" cx="340" cy="-292.98" rx="44.3" ry="18"/>
<text text-anchor="middle" x="340" y="-290.48" font-family="Helvetica,sans-Serif" font-size="10.00" fill="#000000">.api.registry</text>
</g>
<!-- mewbot_core -->
<g id="node5" class="node">
<title>mewbot_core</title><style>.edge>path:hover{stroke-width:8}</style>
<ellipse fill="#22e7e7" stroke="black" cx="171" cy="-436.98" rx="27" ry="18"/>
<text text-anchor="middle" x="171" y="-434.48" font-family="Helvetica,sans-Serif" font-size="10.00" fill="#000000">.core</text>
</g>
<!-- mewbot_api_registry&#45;&gt;mewbot_core -->
<g id="edge12" class="edge">
<title>mewbot_api_registry&#45;&gt;mewbot_core</title><style>.edge>path:hover{stroke-width:8}</style>
<path fill="none" stroke="black" d="M322.14,-309.47C306.93,-323.08 284.92,-343.81 268,-363.98"/>
</g>
<!-- mewbot_api_v1 -->
<g id="node2" class="node">
<title>mewbot_api_v1</title><style>.edge>path:hover{stroke-width:8}</style>
<ellipse fill="#0bd6d6" stroke="black" cx="289" cy="-220.98" rx="29.37" ry="18"/>
<text text-anchor="middle" x="289" y="-218.48" font-family="Helvetica,sans-Serif" font-size="10.00" fill="#000000">.api.v1</text>
</g>
<!-- mewbot_api_v1&#45;&gt;mewbot_api_registry -->
<g id="edge3" class="edge">
<title>mewbot_api_v1&#45;&gt;mewbot_api_registry</title><style>.edge>path:hover{stroke-width:8}</style>
<path fill="none" stroke="black" d="M300.57,-237.87C306.85,-246.48 314.74,-257.32 321.82,-267.03"/>
<polygon fill="#0bd6d6" stroke="black" points="319.04,-269.16 327.76,-275.19 324.7,-265.04 319.04,-269.16"/>
</g>
<!-- mewbot_config -->
<g id="node4" class="node">
<title>mewbot_config</title><style>.edge>path:hover{stroke-width:8}</style>
<ellipse fill="#3bcece" stroke="black" cx="211" cy="-364.98" rx="28.69" ry="18"/>
<text text-anchor="middle" x="211" y="-362.48" font-family="Helvetica,sans-Serif" font-size="10.00" fill="#000000">.config</text>
</g>
<!-- mewbot_api_v1&#45;&gt;mewbot_config -->
<g id="edge10" class="edge">
<title>mewbot_api_v1&#45;&gt;mewbot_config</title><style>.edge>path:hover{stroke-width:8}</style>
<path fill="none" stroke="black" d="M284.36,-238.79C280.32,-253.04 274.17,-273.98 268,-291.98"/>
<path fill="none" stroke="black" d="M268,-293.98C261.56,-312.77 247.53,-330.1 235,-342.83"/>
<polygon fill="#0bd6d6" stroke="black" points="232.22,-340.65 227.48,-350.12 237.09,-345.67 232.22,-340.65"/>
</g>
<!-- mewbot_api_v1&#45;&gt;mewbot_core -->
<g id="edge13" class="edge">
<title>mewbot_api_v1&#45;&gt;mewbot_core</title><style>.edge>path:hover{stroke-width:8}</style>
<path fill="none" stroke="black" d="M268,-293.98C257.91,-323.41 287.99,-340.15 268,-363.98"/>
<path fill="none" stroke="black" d="M268,-365.98C249.05,-388.57 221.28,-407.64 200.31,-420.14"/>
<polygon fill="#0bd6d6" stroke="black" points="198.39,-417.21 191.49,-425.25 201.9,-423.26 198.39,-417.21"/>
</g>
<!-- mewbot_bot -->
<g id="node3" class="node">
<title>mewbot_bot</title><style>.edge>path:hover{stroke-width:8}</style>
<ellipse fill="#3ab0b0" stroke="black" cx="99" cy="-364.98" rx="27" ry="18"/>
<text text-anchor="middle" x="99" y="-362.48" font-family="Helvetica,sans-Serif" font-size="10.00" fill="#000000">.bot</text>
</g>
<!-- mewbot_bot&#45;&gt;mewbot_core -->
<g id="edge14" class="edge">
<title>mewbot_bot&#45;&gt;mewbot_core</title><style>.edge>path:hover{stroke-width:8}</style>
<path fill="none" stroke="black" d="M113.57,-380.15C123.75,-390.05 137.52,-403.44 149.03,-414.62"/>
<polygon fill="#3ab0b0" stroke="black" points="146.59,-417.14 156.2,-421.6 151.47,-412.12 146.59,-417.14"/>
</g>
<!-- mewbot_data -->
<g id="node6" class="node">
<title>mewbot_data</title><style>.edge>path:hover{stroke-width:8}</style>
<ellipse fill="#47c2c2" stroke="black" cx="99" cy="-436.98" rx="27" ry="18"/>
<text text-anchor="middle" x="99" y="-434.48" font-family="Helvetica,sans-Serif" font-size="10.00" fill="#000000">.data</text>
</g>
<!-- mewbot_bot&#45;&gt;mewbot_data -->
<g id="edge16" class="edge">
<title>mewbot_bot&#45;&gt;mewbot_data</title><style>.edge>path:hover{stroke-width:8}</style>
<path fill="none" stroke="black" d="M99,-383.29C99,-391 99,-400.27 99,-408.87"/>
<polygon fill="#3ab0b0" stroke="black" points="95.5,-408.88 99,-418.88 102.5,-408.88 95.5,-408.88"/>
</g>
<!-- mewbot_demo -->
<g id="node7" class="node">
<title>mewbot_demo</title><style>.edge>path:hover{stroke-width:8}</style>
<ellipse fill="#49acac" stroke="black" cx="409" cy="-100.99" rx="27.84" ry="18"/>
<text text-anchor="middle" x="409" y="-98.49" font-family="Helvetica,sans-Serif" font-size="10.00" fill="#000000">.demo</text>
</g>
<!-- mewbot_demo&#45;&gt;mewbot_api_v1 -->
<g id="edge4" class="edge">
<title>mewbot_demo&#45;&gt;mewbot_api_v1</title><style>.edge>path:hover{stroke-width:8}</style>
<path fill="none" stroke="black" d="M391.73,-115.13C367.78,-133.38 327.25,-164.36 326,-165.98"/>
</g>
<!-- mewbot_io_desktop_notification -->
<g id="node8" class="node">
<title>mewbot_io_desktop_notification</title><style>.edge>path:hover{stroke-width:8}</style>
<ellipse fill="#49acac" stroke="black" cx="537" cy="-100.99" rx="82.05" ry="28.98"/>
<text text-anchor="middle" x="537" y="-109.49" font-family="Helvetica,sans-Serif" font-size="10.00" fill="#000000">.</text>
<text text-anchor="middle" x="537" y="-98.49" font-family="Helvetica,sans-Serif" font-size="10.00" fill="#000000">io.</text>
<text text-anchor="middle" x="537" y="-87.49" font-family="Helvetica,sans-Serif" font-size="10.00" fill="#000000">desktop_notification</text>
</g>
<!-- mewbot_io_desktop_notification&#45;&gt;mewbot_api_v1 -->
<g id="edge5" class="edge">
<title>mewbot_io_desktop_notification&#45;&gt;mewbot_api_v1</title><style>.edge>path:hover{stroke-width:8}</style>
<path fill="none" stroke="black" d="M476.32,-120.72C466.2,-123.83 455.81,-127 446,-129.98 392.72,-146.17 360.02,-121.91 326,-165.98"/>
</g>
<!-- mewbot_io_discord -->
<g id="node9" class="node">
<title>mewbot_io_discord</title><style>.edge>path:hover{stroke-width:8}</style>
<ellipse fill="#46a4a4" stroke="black" cx="194" cy="-100.99" rx="39.38" ry="18"/>
<text text-anchor="middle" x="194" y="-98.49" font-family="Helvetica,sans-Serif" font-size="10.00" fill="#000000">.io.discord</text>
</g>
<!-- mewbot_io_discord&#45;&gt;mewbot_api_v1 -->
<g id="edge6" class="edge">
<title>mewbot_io_discord&#45;&gt;mewbot_api_v1</title><style>.edge>path:hover{stroke-width:8}</style>
<path fill="none" stroke="black" d="M213,-166.98C221.46,-184.7 239.13,-197.57 255.3,-206.19"/>
<polygon fill="#46a4a4" stroke="black" points="254.05,-209.47 264.57,-210.77 257.16,-203.2 254.05,-209.47"/>
</g>
<!-- discord -->
<g id="node14" class="node">
<title>discord</title><style>.edge>path:hover{stroke-width:8}</style>
<polygon fill="#80c040" stroke="black" points="240,-310.98 237,-314.98 216,-314.98 213,-310.98 186,-310.98 186,-274.98 240,-274.98 240,-310.98"/>
<text text-anchor="middle" x="213" y="-290.48" font-family="Helvetica,sans-Serif" font-size="10.00" fill="#000000">discord</text>
</g>
<!-- mewbot_io_discord&#45;&gt;discord -->
<g id="edge2" class="edge">
<title>mewbot_io_discord&#45;&gt;discord</title><style>.edge>path:hover{stroke-width:8}</style>
<path fill="none" stroke="black" d="M197.53,-119.1C200.62,-132.3 205.76,-150.82 213,-165.98"/>
<path fill="none" stroke="black" d="M213,-166.98C227.8,-197.96 224.31,-238.39 219.48,-264.76"/>
<polygon fill="#46a4a4" stroke="black" points="216,-264.3 217.45,-274.79 222.86,-265.68 216,-264.3"/>
</g>
<!-- mewbot_io_http -->
<g id="node10" class="node">
<title>mewbot_io_http</title><style>.edge>path:hover{stroke-width:8}</style>
<ellipse fill="#409696" stroke="black" cx="326" cy="-18" rx="30.04" ry="18"/>
<text text-anchor="middle" x="326" y="-15.5" font-family="Helvetica,sans-Serif" font-size="10.00" fill="#ffffff">.io.http</text>
</g>
<!-- mewbot_io_http&#45;&gt;mewbot_api_v1 -->
<g id="edge7" class="edge">
<title>mewbot_io_http&#45;&gt;mewbot_api_v1</title><style>.edge>path:hover{stroke-width:8}</style>
<path fill="none" stroke="black" d="M308.51,-33.22C298.05,-42.9 285.71,-56.71 280,-72 270.98,-96.14 268.71,-106.82 280,-129.98 291.37,-153.32 341.86,-145.43 326,-165.98"/>
<path fill="none" stroke="black" d="M326,-166.98C318.78,-176.02 311.38,-186.37 305.11,-195.51"/>
<polygon fill="#409696" stroke="black" points="302.19,-193.58 299.49,-203.82 307.99,-197.5 302.19,-193.58"/>
</g>
<!-- mewbot_io_socket -->
<g id="node11" class="node">
<title>mewbot_io_socket</title><style>.edge>path:hover{stroke-width:8}</style>
<ellipse fill="#3db8b8" stroke="black" cx="326" cy="-100.99" rx="37.17" ry="18"/>
<text text-anchor="middle" x="326" y="-98.49" font-family="Helvetica,sans-Serif" font-size="10.00" fill="#000000">.io.socket</text>
</g>
<!-- mewbot_io_http&#45;&gt;mewbot_io_socket -->
<g id="edge17" class="edge">
<title>mewbot_io_http&#45;&gt;mewbot_io_socket</title><style>.edge>path:hover{stroke-width:8}</style>
<path fill="none" stroke="black" d="M326,-36.18C326,-46.81 326,-60.69 326,-72.79"/>
<polygon fill="#409696" stroke="black" points="322.5,-72.84 326,-82.84 329.5,-72.84 322.5,-72.84"/>
</g>
<!-- aiohttp -->
<g id="node13" class="node">
<title>aiohttp</title><style>.edge>path:hover{stroke-width:8}</style>
<polygon fill="#c04040" stroke="black" points="674,-238.98 671,-242.98 650,-242.98 647,-238.98 620,-238.98 620,-202.98 674,-202.98 674,-238.98"/>
<text text-anchor="middle" x="647" y="-218.48" font-family="Helvetica,sans-Serif" font-size="10.00" fill="#ffffff">aiohttp</text>
</g>
<!-- mewbot_io_http&#45;&gt;aiohttp -->
<g id="edge1" class="edge">
<title>mewbot_io_http&#45;&gt;aiohttp</title><style>.edge>path:hover{stroke-width:8}</style>
<path fill="none" stroke="black" d="M355.94,-19.9C424.72,-22.62 590.91,-33.17 628,-72 658.67,-104.12 656.78,-159.59 652.19,-192.73"/>
<polygon fill="#409696" stroke="black" points="648.72,-192.22 650.64,-202.64 655.64,-193.3 648.72,-192.22"/>
</g>
<!-- mewbot_io_socket&#45;&gt;mewbot_api_v1 -->
<g id="edge8" class="edge">
<title>mewbot_io_socket&#45;&gt;mewbot_api_v1</title><style>.edge>path:hover{stroke-width:8}</style>
<path fill="none" stroke="black" d="M331.24,-119.03C334.43,-133.09 336.18,-152.79 326,-165.98"/>
</g>
<!-- mewbot_loader -->
<g id="node12" class="node">
<title>mewbot_loader</title><style>.edge>path:hover{stroke-width:8}</style>
<ellipse fill="#409696" stroke="black" cx="119" cy="-292.98" rx="29.37" ry="18"/>
<text text-anchor="middle" x="119" y="-290.48" font-family="Helvetica,sans-Serif" font-size="10.00" fill="#ffffff">.loader</text>
</g>
<!-- mewbot_loader&#45;&gt;mewbot_bot -->
<g id="edge9" class="edge">
<title>mewbot_loader&#45;&gt;mewbot_bot</title><style>.edge>path:hover{stroke-width:8}</style>
<path fill="none" stroke="black" d="M114.16,-310.93C111.9,-318.84 109.15,-328.44 106.63,-337.29"/>
<polygon fill="#409696" stroke="black" points="103.18,-336.62 103.8,-347.19 109.91,-338.54 103.18,-336.62"/>
</g>
<!-- mewbot_loader&#45;&gt;mewbot_config -->
<g id="edge11" class="edge">
<title>mewbot_loader&#45;&gt;mewbot_config</title><style>.edge>path:hover{stroke-width:8}</style>
<path fill="none" stroke="black" d="M136.74,-307.48C150.48,-317.94 169.73,-332.58 185.18,-344.34"/>
<polygon fill="#409696" stroke="black" points="183.24,-347.26 193.32,-350.53 187.48,-341.69 183.24,-347.26"/>
</g>
<!-- mewbot_loader&#45;&gt;mewbot_core -->
<g id="edge15" class="edge">
<title>mewbot_loader&#45;&gt;mewbot_core</title><style>.edge>path:hover{stroke-width:8}</style>
<path fill="none" stroke="black" d="M125.17,-310.83C134.12,-335.28 150.8,-380.81 161.37,-409.7"/>
<polygon fill="#409696" stroke="black" points="158.11,-410.97 164.84,-419.16 164.69,-408.56 158.11,-410.97"/>
</g>
<!-- yaml -->
<g id="node15" class="node">
<title>yaml</title><style>.edge>path:hover{stroke-width:8}</style>
<polygon fill="#8553b6" stroke="black" points="54,-454.98 51,-458.98 30,-458.98 27,-454.98 0,-454.98 0,-418.98 54,-418.98 54,-454.98"/>
<text text-anchor="middle" x="27" y="-434.48" font-family="Helvetica,sans-Serif" font-size="10.00" fill="#ffffff">yaml</text>
</g>
<!-- mewbot_loader&#45;&gt;yaml -->
<g id="edge18" class="edge">
<title>mewbot_loader&#45;&gt;yaml</title><style>.edge>path:hover{stroke-width:8}</style>
<path fill="none" stroke="black" d="M101.17,-307.44C89.09,-317.31 73.49,-331.61 63,-346.98 49.92,-366.15 40.42,-390.79 34.48,-409.29"/>
<polygon fill="#409696" stroke="black" points="31.13,-408.27 31.54,-418.85 37.82,-410.32 31.13,-408.27"/>
</g>
</g>
</svg>
